<svg width="25" height="25" viewBox="0 0 25 25" fill="none" xmlns="http://www.w3.org/2000/svg">
<path d="M13 0.999986C16.1176 0.999986 15.7768 0.942614 17 0.999986C18.222 1.05736 19.2679 1.71542 20 1.99999C20.7573 2.29144 21.362 2.36315 22 2.99999C22.5835 3.57359 22.7119 4.23417 23 4.99999C23.2834 5.73091 23.9426 6.77795 24 7.99999C24.0539 9.22317 24 9.88236 24 13C24 16.1176 24.0574 15.7768 24 17C23.9426 18.222 23.2834 19.2679 23 20C22.7128 20.7662 22.5842 21.427 22 22C21.4262 22.5833 20.7657 22.7117 20 23C19.2691 23.2834 18.222 23.9426 17 24C15.7768 24.0539 16.1176 24 13 24C9.88238 24 9.22318 24.0574 8 24C6.77797 23.9426 5.73207 23.2834 5 23C4.23388 22.7125 3.57318 22.584 3 22C2.41641 21.4265 2.28793 20.7659 2 20C1.71543 19.2691 1.05737 18.222 1 17C0.946069 15.7768 1 16.1176 1 13C1 9.88236 0.942627 9.22317 1 7.99999C1.05737 6.7768 1.71543 5.73206 2 4.99999C2.28713 4.2337 2.41572 3.57293 3 2.99999C3.57335 2.4162 4.23399 2.28769 5 1.99999C5.73207 1.71542 6.77682 1.05736 8 0.999986C9.22318 0.946056 9.88238 0.999986 13 0.999986ZM13 6.99999C11.4784 6.99999 9.07594 6.92404 8 7.99999C6.92406 9.07593 7 11.4784 7 13C7 14.5216 6.92406 15.924 8 17C9.07594 18.0759 11.4784 18 13 18C14.5216 18 15.9241 18.0759 17 17C18.0759 15.924 18 14.5216 18 13C18 11.4784 18.0759 9.07593 17 7.99999C15.9241 6.92404 14.5216 6.99999 13 6.99999ZM20 5.99999C20 5.61958 20.269 5.26897 20 4.99999C19.731 4.731 19.3804 4.99999 19 4.99999C18.6196 4.99999 18.269 4.731 18 4.99999C17.731 5.26897 17 5.61958 17 5.99999C17 6.38039 17.731 6.731 18 6.99999C18.269 7.26897 18.6196 7.99999 19 7.99999C19.3804 7.99999 19.731 7.26897 20 6.99999C20.269 6.731 20 6.38039 20 5.99999ZM13 8.99999C13.913 8.99999 14.3544 9.35442 15 9.99999C15.6456 10.6456 16 12.087 16 13C16 13.913 15.6456 14.3544 15 15C14.3544 15.6456 13.913 16 13 16C12.087 16 10.6456 15.6456 10 15C9.35443 14.3544 9 13.913 9 13C9 12.087 9.35443 10.6456 10 9.99999C10.6456 9.35442 12.087 8.99999 13 8.99999Z" fill="#888888"/>
</svg>
